<svg xmlns="http://www.w3.org/2000/svg" xmlns:xlink="http://www.w3.org/1999/xlink" version="1.1" id="Layer_1" x="0px" y="0px" width="52.667px" height="100.028px" viewBox="0 0 52.667 100.028" enable-background="new 0 0 52.667 100.028" xml:space="preserve">
<g>
	<circle fill="#000000" cx="20.158" cy="8.164" r="8.164"/>
	<path fill="#000000" d="M51.907,27.211c-1.201-1.514-3.404-1.767-4.917-0.564l-8.099,6.432l-3.012-7.484   c-0.863-2.588-3.174-7.548-8.872-7.548h-13.78c-5.75,0-8.125,4.658-8.874,7.283L0.13,38.786c-0.417,1.375,0.198,2.852,1.468,3.523   l5.646,2.986l-6.246,21.67h10.089l0.002,29.255c0,5.037,7.545,5.037,7.545,0l-0.005-29.447h3.063c0,0,5.397,22.083,7,29.488   c1.1,5.083,8.098,4.962,7.514,0c-0.881-7.479-7-29.296-7-29.296h10.057L28.347,29.388h1.473l4.357,10.656   c0.418,1.019,1.289,1.783,2.355,2.062c0.291,0.076,0.589,0.114,0.885,0.114c0.781,0,1.551-0.262,2.177-0.759l11.75-9.332   C52.857,30.927,53.11,28.725,51.907,27.211z M6.59,38.163l2.958-8.774h2.281L8.941,39.406L6.59,38.163z"/>
</g>
</svg>