<svg xmlns="http://www.w3.org/2000/svg" xmlns:xlink="http://www.w3.org/1999/xlink" version="1.1" id="Your_Icon" x="0px" y="0px" width="100px" height="100px" viewBox="0 0 100 100" enable-background="new 0 0 100 100" xml:space="preserve">
<g>
	<path fill="#000000" d="M98.777,55.66c0,0-0.178-0.799-1.065-0.842c-0.887-0.046-0.887-0.046-0.887-0.046s0.045-2.75-1.286-3.771   c-1.332-1.021-2.219-2.618-7.056-3.55c-1.511-0.246-5.856-0.019-10.463-0.815c-0.091-0.015-0.183,0.123-0.116,0.184   c0.774,0.45,0.104,1.43-0.781,2.052c-2.396,1.42-8.387,3.194-19.702,3.062c-5.06-0.266-14.022-2.75-14.6,9.143   c0,0-0.913-0.278-2.339-0.661l0.117,0.028c0.099-0.418,0.108-0.989,0.12-1.712c0.032-2.008,0.08-5.04,2.23-6.935   c1.779-1.57,4.765-2.137,8.908-1.683c15.219,0.499,16.135-5.406,16.166-5.658l0.058-0.461l-4.585-1.226   c0-0.001,0-0.003-0.001-0.004c-0.26-0.079-0.819-0.284-1.151-0.407c-0.446-0.143-0.028-0.57-0.612-0.975   c-0.584-0.405-0.629,0.175-1.129-0.18c-0.324-0.231-0.65-0.463-0.979-0.696c-0.323-0.229-0.122-0.522-0.537-0.855   c-0.416-0.333-0.834-0.11-1.032-0.249c-0.55-0.385-1.104-0.768-1.655-1.147c-0.188-0.127,0.024-0.467-0.458-0.817   s-0.674,0.051-0.849-0.066c-0.575-0.387-0.926-0.619-1.493-0.988c-0.233-0.152,0.095-0.493-0.421-0.826   c-0.516-0.333-0.702,0.104-0.913-0.027c-0.487-0.306-0.971-0.603-1.445-0.887c-0.237-0.142,0.195-0.384-0.354-0.7   c-0.549-0.316-0.623,0.128-0.757,0.052c-0.66-0.375-1.302-0.723-1.921-1.035c-0.257-0.129,0.016-0.448-0.534-0.748   c-0.549-0.299-0.659,0.177-0.871,0.084c-2.72-1.189-4.833-1.494-5.779-0.245c-7.811,8.875-13.933,7.987-18.015,8.254   c-4.083,0.266-18.727-4.792-18.727-4.792s-6.036,13.711-1.465,21.167c-1.287,0.133-1.287,0.888-1.331,1.331   c-0.045,0.443,0.177,6.745,0.177,6.745s-0.177,1.064,2.396,1.021c2.574-0.044,24.806-0.044,24.806-0.044s-0.044-3.506,0.222-3.728   c0.267-0.223,1.288-0.489,2.441-0.223c1.153,0.266,20.146,4.837,25.604,4.837c12.471-0.045,26.937-4.481,40.692-7.766   c0.887-0.267,1.554-0.709,1.598-1.108L98.777,55.66z M66.809,44.757c-0.592,1.245-3.278,4.674-14.876,4.294   c-4.416-0.486-7.675,0.169-9.688,1.945c-2.502,2.207-2.557,5.656-2.59,7.717c-0.011,0.618-0.019,1.15-0.086,1.46   c-0.961-0.249-2.077-0.522-3.267-0.786c0.001-0.039,0.002-0.082,0.003-0.141c0.058-3.457,0.617-5.767,1.076-7.096   c1.364-3.956,5.035-6.268,9.51-6.035c8.141,0.918,14.233,0.368,16.294-1.475c0.271-0.242,0.44-0.484,0.545-0.708L66.809,44.757z    M27.379,58.146c-0.133-0.045-0.001-11.007-5.947-11.894c-5.946-0.887-13.401-2.141-13.401-2.174   C7,43.829,4.57,42.392,5.369,40.528c0.133,0.045,9.895,2.884,17.528,3.195s11.36-0.621,16.907-5.28   c4.659-3.906,11.447,1.819,12.069,2.174c0,0,4.435,2.369,5.245,4.733c-2.494,0.222-5.838,0.19-10.143-0.295   c-5.016-0.263-9.078,2.327-10.603,6.75c-0.48,1.391-1.064,3.798-1.132,7.356C32.577,58.605,29.681,58.146,27.379,58.146z"/>
	<circle fill="#000000" cx="38.096" cy="57.724" r="0.556"/>
	<circle fill="#000000" cx="38.34" cy="55.305" r="0.555"/>
	<circle fill="#000000" cx="38.873" cy="52.998" r="0.555"/>
	<circle fill="#000000" cx="39.938" cy="50.824" r="0.555"/>
	<circle fill="#000000" cx="41.8" cy="49.049" r="0.555"/>
	<circle fill="#000000" cx="44.064" cy="48.028" r="0.555"/>
	<circle fill="#000000" cx="46.595" cy="47.584" r="0.555"/>
	<circle fill="#000000" cx="49.078" cy="47.585" r="0.555"/>
	<circle fill="#000000" cx="51.719" cy="47.762" r="0.555"/>
	<circle fill="#000000" cx="54.227" cy="47.895" r="0.555"/>
	<circle fill="#000000" cx="56.71" cy="47.895" r="0.555"/>
	<circle fill="#000000" cx="59.052" cy="47.54" r="0.555"/>
	<circle fill="#000000" cx="61.326" cy="47.096" r="0.555"/>
	<circle fill="#000000" cx="63.268" cy="46.303" r="0.555"/>
	<circle fill="#000000" cx="64.731" cy="45.133" r="0.555"/>
</g>
</svg>